<?xml version="1.0" standalone="no"?>
<!DOCTYPE svg PUBLIC "-//W3C//DTD SVG 20010904//EN"
 "http://www.w3.org/TR/2001/REC-SVG-20010904/DTD/svg10.dtd">
<svg version="1.0" xmlns="http://www.w3.org/2000/svg"
 width="489.000000pt" height="499.000000pt" viewBox="0 0 489.000000 499.000000"
 preserveAspectRatio="xMidYMid meet">

<g transform="translate(0.000000,499.000000) scale(0.100000,-0.100000)"
fill="#473D52" stroke="none">
<path d="M2403 4903 c-61 -105 -1092 -1890 -1405 -2433 -154 -267 -291 -502
-304 -523 l-24 -37 -73 0 c-101 0 -375 -18 -477 -31 -95 -12 -125 -23 -94 -32
49 -15 167 -28 361 -39 117 -7 213 -15 213 -19 0 -4 -106 -190 -235 -413 -129
-223 -235 -409 -235 -412 0 -2 61 -111 137 -242 75 -130 136 -241 136 -247 0
-5 -58 -109 -128 -230 -70 -121 -129 -224 -131 -230 -3 -6 29 -10 83 -10 l88
0 81 140 c44 77 85 148 91 159 8 15 24 -5 100 -135 l89 -154 102 -3 c56 -1
102 0 102 3 0 3 -61 111 -136 241 -84 146 -134 243 -131 254 3 10 165 297 362
638 l357 619 1100 -1 1099 -1 375 -649 c206 -356 374 -650 374 -653 0 -2 -59
-106 -130 -230 -72 -123 -130 -226 -130 -226 0 -1 41 0 91 3 l92 5 81 142 c44
79 84 143 87 143 4 0 44 -65 89 -144 l83 -145 104 -3 c82 -2 102 0 98 10 -3 7
-63 114 -135 238 -71 123 -130 228 -130 232 0 4 61 113 136 242 75 129 136
240 136 245 0 6 -104 190 -231 410 l-231 400 32 7 c18 3 121 11 229 17 202 12
319 27 319 41 0 18 -149 35 -440 51 -128 7 -209 15 -217 22 -6 7 -154 260
-328 562 -325 565 -380 660 -865 1500 -481 832 -561 970 -569 978 -5 5 -26
-22 -48 -60z m303 -736 c235 -407 539 -935 1150 -1991 79 -136 144 -250 144
-252 0 -6 -102 -5 -238 3 l-121 6 -70 121 c-38 67 -135 236 -216 376 -81 140
-276 478 -433 750 -439 763 -474 822 -482 813 -4 -4 -204 -350 -445 -768 -241
-418 -507 -880 -592 -1026 l-154 -266 -191 -6 c-106 -3 -193 -5 -194 -4 -1 1
40 76 93 167 52 91 146 253 208 360 62 107 365 634 675 1170 309 536 567 985
573 998 6 12 13 22 16 22 3 0 128 -213 277 -473z m207 -1332 c203 -352 403
-697 443 -767 41 -69 74 -128 74 -130 0 -2 -447 -2 -992 0 -546 1 -996 2
-1000 2 -3 0 65 123 151 273 87 149 294 508 460 797 167 289 321 556 343 593
l40 69 55 -99 c31 -54 222 -386 426 -738z m-1871 -1055 c88 0 109 -3 106 -14
-7 -29 -633 -1105 -640 -1098 -3 4 -47 77 -97 164 l-90 156 232 402 232 403
74 -7 c41 -3 123 -6 183 -6z m3279 -409 c131 -228 239 -417 239 -420 0 -8
-158 -283 -169 -294 -7 -7 -641 1077 -649 1110 -3 10 32 13 155 16 87 1 164 3
171 2 8 0 121 -186 253 -414z"/>
</g>
</svg>
